<svg version="1.0" xmlns="http://www.w3.org/2000/svg" width="1709.333" height="1709.333" viewBox="0 0 1282 1282"><path d="M623.7.6c-.1.1-6.5.5-14.2.8-7.7.4-16.2.8-19 1.1-2.7.3-7.5.7-10.5.9-6.2.6-14 1.4-18.5 2.1-1.6.2-5.2.7-8 1-2.7.4-6.3.9-8 1.2-1.6.2-4.2.6-5.7.8-3.7.5-14 2.4-22.3 4-3.8.8-8.2 1.6-9.8 1.9-1.5.3-3.5.7-4.5 1-.9.3-2.8.7-4.2 1-12.7 2.5-46.1 11.8-63.5 17.8-32.7 11.2-71.4 28.2-101 44.3-8.6 4.7-38.8 22.6-39.5 23.4-.3.3-5.9 4.2-12.5 8.6-10.5 6.9-35.1 24.8-36.5 26.4-.3.3-2.1 1.8-4.2 3.3-2 1.5-4.2 3.3-5 4.1-.7.7-2.6 2.3-4.2 3.5-3.1 2.4-11.5 9.6-20.5 17.7-7 6.1-39.9 39.1-46.6 46.5-8.8 9.8-15.9 18.3-24.1 28.5-4.3 5.5-8.3 10.4-8.7 11-12.5 15.3-37.2 52.8-51.5 78.3-7.6 13.6-25.8 51.3-31.6 65.7-3.2 7.7-6.1 14.9-6.6 16-.5 1.1-2.3 6-4 11-1.7 4.9-3.5 10-4.1 11.3-.5 1.2-3.2 9.8-6 19-7.4 24.6-13.1 47.8-17.5 71.7-.9 4.9-1.7 9.7-1.9 10.5-1 5.3-2 12.6-3.1 21-.3 2.5-.7 5.6-.9 7-.2 1.4-.7 5.6-1 9.5-.3 3.8-.8 8.1-1 9.5-.4 2.3-1.3 15.5-2 29-.5 8.9-.5 48.7 0 59 .6 12.4 1.4 25.1 1.9 29.8.3 2 .7 6.4 1.1 9.7.7 7.2 3.3 27 4 30.5.2 1.4.9 5.4 1.5 9 .5 3.6 1.2 7.6 1.5 9 .3 1.4.9 4.7 1.5 7.5 7.2 37.4 19.2 77.6 34.2 115 8.9 22 20.7 47.2 30.1 64 2.8 4.9 6.4 11.5 8 14.5 4.2 7.6 16.5 27.3 25.7 41 6.7 10 28.4 39.4 31.4 42.6.6.6 2.7 3.1 4.6 5.5 1.9 2.4 7.1 8.4 11.4 13.4 30 34.1 63.6 65.3 98.6 91.6 37.7 28.3 85.8 56.5 125.4 73.6 4.4 1.9 9.4 4 11 4.8 31.5 14.2 97 33.5 135.6 39.9 8.8 1.5 23.2 3.6 27.6 4.1 2.7.3 6 .8 7.4 1 1.4.2 5.4.6 9 1 3.6.3 8.1.8 10 1 17.7 2.1 82.4 2.8 102 1.2 16.6-1.4 20.4-1.7 24-2.2 1.9-.2 6-.7 9-1 3-.3 6.6-.8 8-1 1.4-.3 4.9-.7 7.9-1 3-.3 5.7-.8 6.1-1 .3-.2 2.8-.6 5.6-1 5.4-.6 17-2.8 27.9-5.1 3.9-.9 8.1-1.8 9.5-2 4.9-.9 32.7-8.4 44.5-11.9 59.9-18.1 121.6-47.6 172.5-82.4 10.8-7.4 29.9-21.3 38-27.8 3-2.4 6.2-5 7-5.6 30.6-24.2 71.6-65.9 98.3-99.7 3.7-4.7 7.1-9 7.5-9.5 12.1-15.2 33.9-48.3 47.4-71.9 29.9-52.6 55.3-118 67.3-173.6.1-.3.7-3 1.3-6 .7-3 1.4-6.4 1.6-7.5.2-1.1.7-3.1 1-4.5 1-4.1 4.9-28.5 6-37 .3-2.5.8-5.4 1-6.5.2-1.1.7-5.4 1.1-9.5.3-4.1.8-8.6 1-10 .4-3 1.6-18.3 2.1-26.5.5-9.1.5-57.8 0-67.5-.5-9.1-1.5-22.3-2.1-28-.2-1.9-.7-6.4-1-10-.4-3.6-.8-7.6-1-9-.2-1.4-.7-4.5-1-7-.3-2.5-1-7.2-1.5-10.5s-1.2-7.8-1.5-10c-.4-2.2-.8-4.7-1-5.5-.3-.8-.7-3.3-1.1-5.5-.8-5.4-9-42.1-10.4-46.5-.6-1.9-1.3-4.3-1.5-5.4-1.7-7.5-11.2-37-17.2-53.1-20.8-56-50.6-110.8-85.9-158.1-10.7-14.4-8.7-11.9-22.9-28.9-30-36-65-69.8-101.5-97.7-21.9-16.7-53.3-37.6-74.5-49.4-3.8-2.1-8.8-4.9-11-6.1-8.1-4.6-38.3-19.3-49-23.8-36.7-15.8-76.3-28.8-112.5-37-.8-.2-3.5-.8-6-1.4-5.3-1.2-9.1-1.9-14-2.7-1.9-.3-5.1-.9-7-1.4-3.3-.8-14.5-2.6-22-3.6-1.9-.2-4.6-.6-6-.9-1.4-.2-5.2-.7-8.5-1-3.3-.4-7.1-.8-8.5-1-1.4-.2-5.6-.7-9.5-1-3.8-.4-8.7-.8-10.7-1.1-9.8-1-67.2-2.6-68.1-1.8zm38.8 42.8c11.6.3 22.1.8 23.5 1 1.4.2 6.3.7 11 1.1 4.7.3 9.9.8 11.5 1 1.7.2 5.3.7 8 1 7.1.9 11.1 1.5 18 2.6 3.3.6 7.6 1.3 9.5 1.5 2.8.4 27.8 5.4 34 6.9 49.7 11.6 103.4 32.1 148 56.4 125.7 68.5 223.6 180.3 273.8 312.6 8.4 22 16.7 48.1 20.7 64.5 3.2 12.7 5.5 23.2 6 26 .3 1.9.8 4.2 1 5 .2.8.6 2.7.9 4.3.3 1.5 1 5.3 1.5 8.5.6 3.1 1.3 7.5 1.6 9.7.4 2.2.8 4.7 1 5.5.2.8.7 4.1 1 7.3.4 3.2.8 6.6 1 7.5.1.9.6 5.1 1 9.2s.9 8.2 1 9.2c2 10.3 2.7 77.8 1.2 98.3-.5 6-1 12.7-1.2 14.8-.3 3.9-1.3 13.2-2 17.7-.2 1.4-.6 4.7-1 7.5-1.5 12.3-6.1 38.1-9.1 50.7-.2 1-.6 2.6-.8 3.5-7.6 32.7-21.7 75.3-34.1 102.8-1.4 3.3-3.4 7.6-4.2 9.5-2.8 6.2-15.1 30.9-18.9 37.8-21.2 38.5-46.5 74.7-73.9 106.2-9.7 11.1-13.5 15.1-29 30.5-24.7 24.8-47.4 44.2-73.8 63.1-5.6 4-10.6 7.7-11.2 8.1-2.4 2.1-29.1 18.7-40 25-14.5 8.3-35.9 19.3-51.5 26.3-11.8 5.3-43.3 18-46.1 18.5-.8.2-3.1 1-5 1.8-2 .8-9.8 3.3-17.5 5.6-7.6 2.4-16.1 4.9-18.9 5.8-2.7.8-6.1 1.7-7.3 1.9-1.3.3-4.9 1.1-8 2-6.8 1.8-42.8 9-49.2 9.9-2.5.3-5.2.8-6 1-.8.2-4.4.7-8 1-3.6.4-7.3.9-8.3 1.1-1 .1-5 .6-9 1-3.9.3-8.5.8-10.2.9-17.9 2-69.7 2.6-89.5 1.2-22.1-1.7-38.1-3.3-50-5.2-1.4-.2-5.6-.9-9.5-1.5-3.8-.6-8.3-1.3-10-1.6-4.9-.8-22.7-4.5-27-5.6-2.2-.5-4.7-1.1-5.5-1.3-15-2.9-59-16.8-80.5-25.4-23.4-9.4-54.1-23.9-72-34-21.7-12.4-44.4-27.1-64.5-41.9-10.1-7.5-25.4-19.6-28.6-22.6-.7-.6-3.8-3.4-7-6.1-12.8-11-37.4-34.9-49.5-48-50-54.8-89.3-117.9-116.4-187.5-4.5-11.4-13.7-37.8-15-43-.2-.8-2.4-8.9-4.9-17.9-2.5-9-4.7-17.6-5-19-.2-1.4-.9-4.9-1.6-7.6-1.4-6.1-1.3-5.5-3.8-19-1.2-6.1-2.4-13-2.7-15.5-.3-2.5-.8-5.2-1-6-.2-.8-.6-4-1-7.1-.3-3.1-.7-6.5-.9-7.5-.2-1.1-.7-5.3-1.1-9.4-.3-4.1-.8-8.6-1-10-2.6-18.2-2.6-82.7 0-108.3 2.2-21.6 2.9-27.4 4.5-36.7.5-3 1.2-7.3 1.4-9.5.3-2.2 1.2-7.4 2.1-11.5.9-4.1 1.8-9 2.1-10.9.3-1.9 2.1-9.7 4.1-17.5 1.9-7.8 3.6-14.6 3.7-15.1.4-1.9 3.8-13.1 7.3-24.5 16.9-54.6 46.9-115.5 79.5-161.7 6-8.5 23.7-32.3 24.8-33.3.3-.3 2.9-3.4 5.9-7 21.1-25.6 58.2-62.3 83.6-82.7 17-13.6 24.6-19.2 41-30.4 9.4-6.4 22.4-14.8 28.6-18.4 30.8-18 58.3-31.5 85.4-42.1 5-2 10.1-4 11.5-4.6 24.3-9.9 80.2-25.1 107.5-29.2 2.2-.4 6.5-1.1 9.5-1.6 7-1.1 11-1.7 18.5-2.6 3.3-.3 6.8-.8 7.8-1 1-.2 6.2-.6 11.5-.9 5.3-.4 10.3-.8 11-1.1.7-.2 10.4-.7 21.5-1 11.1-.4 20.4-.8 20.5-1 .2-.1.9-.1 1.5.1.7.2 10.7.6 22.2.9z"/><path d="M626.3 625.8C456.7 795.4 318 934.5 318 934.9c0 .3 6.5 7.1 14.5 15.1l14.5 14.5 308.9-308.9 308.8-308.8-13.2-13.1c-7.3-7.3-14.1-13.9-15.1-14.7-1.8-1.5-18.7 15.2-310.1 306.8zm-292-166.7V586H374v-42.1c0-47.8-1.2-41.3 9.8-53.8 3.3-3.6 7.9-8.9 10.3-11.8 2.4-2.8 4.9-5.1 5.5-5 1.4.2 2.8 2 50.8 64.6l37 48.1h24.3c13.4 0 24.3-.3 24.3-.6 0-.5-12.7-17.2-14-18.4-.3-.3-4.8-6.1-10-13s-10-13.2-10.7-14c-.6-.8-7.1-9.2-14.3-18.5-7.1-9.4-13.9-18.1-15-19.5-1.1-1.4-6-7.7-10.7-14-4.8-6.3-9-11.7-9.3-12-.3-.3-5.9-7.4-12.4-15.8-13-17-12.5-15.1-6.6-21.3.8-.9 4.7-5.1 8.5-9.5 14.6-16.3 16.9-18.9 17.4-19.4.3-.3 4-4.3 8.1-9s8.9-10.1 10.7-12c1.7-1.9 4.1-4.6 5.2-5.9 3-3.5 15.4-17.3 17.1-19.1.8-.9 6.7-7.4 13-14.5 6.3-7.2 12.1-13.6 12.7-14.3.7-.7 1.3-1.7 1.3-2.1 0-.5-10.4-.8-23-.8h-23.1l-2.5 3.1c-1.5 1.7-5.2 6-8.4 9.6-3.2 3.6-12.6 14.4-21 24s-15.6 17.7-15.9 18c-.3.3-4.9 5.4-10.1 11.5-5.2 6-10.5 12.1-11.8 13.5-1.2 1.4-9.8 11.1-19 21.7s-17 19.2-17.4 19.2c-.5.1-.8-27.1-.8-60.3v-60.3h-39.7v126.8zm481.2 238.8c-1 2.5-21.1 58.1-26.5 73.1-2.6 7.4-6.4 18-8.5 23.5-2 5.5-7.9 21.9-13.2 36.5-5.2 14.6-11.1 30.8-13 36-1.8 5.2-5.2 14.7-7.4 21-2.2 6.3-4.5 12.4-4.9 13.5-1.8 4-16.1 44.1-16.6 46.2l-.4 2.3h20.5c11.3 0 20.5-.2 20.5-.4 0-.5 19.8-59.3 21.6-64.1l1.5-4H837c26.3 0 48 .2 48.3.5.2.3 5.5 15.7 11.8 34.2l11.4 33.8h20.7c11.5 0 20.8-.3 20.8-.6 0-.4-4.3-12.6-9.6-27.3-5.3-14.6-15.2-42.1-22-61.1-6.9-19-14.2-39.2-16.3-45-4.5-12.1-19.6-54.2-30.1-83.5-3.9-11-7.7-21.6-8.5-23.5-.7-1.9-2.1-5.6-3.1-8.1l-1.8-4.6h-21.3c-18.4 0-21.3.2-21.8 1.6zm25.2 50.3c1.7 5.1 10 29.3 18.3 53.8 8.4 24.5 15.4 45.2 15.7 46.1.4 1.5-3 1.6-36.9 1.6-20.5 0-37.6-.1-38-.3-.3-.2 4.3-14.9 10.4-32.6 6-17.8 14.4-42.5 18.6-55 4.2-12.6 7.9-22.8 8.2-22.8.3 0 2 4.2 3.7 9.2z"/></svg>