<svg version="1.0" xmlns="http://www.w3.org/2000/svg" width="933.333" height="933.333" viewBox="0 0 700 700"><path d="M329.8.4c-.1.2-4.1.6-8.8 1-10 .7-22.5 2.2-29.5 3.6-2.7.5-6.3 1.2-8 1.5-6.8 1.1-9.5 1.7-19 4.1-66.3 16.7-125.3 52-172.4 103-9.4 10.3-10.1 11.1-18.3 21.6-22.3 28.5-41 62.6-53.1 96.3-7.8 21.8-14.8 50.3-17.2 70.1-.4 3.3-.9 6.8-1.1 7.9-1.9 10-2.6 56.6-1 71.5 1.1 10.9 2.6 22.5 4 29.5.2 1.1.6 3.6 1 5.5 6.4 35.3 20.9 74.6 39.4 107 50 87.3 134.8 149.1 232.7 169.6 8.9 1.8 18.6 3.5 23.8 4 3.4.3 6.5.8 6.8 1 2.9 1.7 53.6 2.5 70.9 1.1 15.3-1.3 36.9-4.7 47.5-7.4 3.3-.8 6.7-1.6 7.5-1.8 17.8-3.6 56-18.1 76.7-29 40.6-21.6 71-45.7 104.3-83 9.6-10.7 28.3-37.2 37.3-52.6 24.9-43.1 41.1-95.1 45.5-145.4 1.4-16.4.5-62.8-1.3-72-.2-1.1-.7-4-1-6.5-.3-2.5-.7-5.6-1-7-.3-1.4-.8-4.2-1.1-6.3-.9-5.5-5.8-26.9-8.4-35.7-5.5-19.3-16.1-45.5-25.8-64-46-87.6-126-151.4-221.2-176.4-18.2-4.8-32-7.3-56-10.2-5-.5-52.6-1.4-53.2-1zM380 24.3c1.4.3 5.4.8 8.9 1.2 7.3.7 31 4.8 35.3 6.1 1 .3 3 .7 4.4 1 1.4.3 9.2 2.5 17.2 5 71.5 22.2 132.9 67.5 174.1 128.4 19.7 29.1 33.4 57.8 43 90.2 3.5 12 4.6 16.1 5.6 20.8.2.8 1 4.9 1.9 9 1.7 8.3 2.2 11.3 3.1 18 .3 2.5.8 5.2 1 6 1.8 7.2 2.6 49.5 1.2 67-1.6 20.5-5.9 43.7-11.3 62-1.4 4.7-3.1 10.5-3.8 13-4.2 14.6-19.7 48.8-29.6 65-44.3 72.9-111.4 124.6-191.5 147.5-6.6 1.9-14.3 3.9-17 4.5-8.1 1.6-14.8 3-17.5 3.5-1.4.3-5 .8-8 1.1-3 .3-5.7.7-6 .9-1.6 1-22.9 2-42 2-19.3 0-33.4-.7-39.4-2-1.2-.2-4-.6-6.3-.9-2.2-.3-5.2-.7-6.5-1-1.2-.3-3.6-.7-5.3-1-5.4-.7-18.9-3.6-24.5-5.2-39-11.3-65.2-22.9-94.9-42.1-21.6-14-34.9-24.9-54.6-44.7-12.9-13-14.6-14.9-24.5-27.6-2.8-3.6-5.8-7.3-6.5-8.2-3-3.7-15.4-22.8-19.8-30.4-13.7-24-25.2-51.7-31.7-75.9-3.5-12.9-7.5-31.8-8.5-39.4-.4-3-.8-6.3-1.1-7.4-2.6-13.6-2.5-71.3.1-81.7.2-.8.6-3.8 1-6.5.3-2.8.8-5.7 1-6.5.2-.8.6-3.1.9-5 .6-3.8.7-4.2 3-14 6.2-27.3 14.6-50.4 27.2-75.1 22.6-44.4 55.1-83.2 94.4-112.8 5.2-3.9 10-7.4 10.5-7.8 2-1.6 17.2-11.2 23-14.6 23-13.5 58.8-27.9 85-34.3 5.2-1.2 27.2-5.4 31.1-5.9 2.7-.3 5.8-.8 6.9-1 1.1-.2 6.1-.7 11-1.1 5-.3 9.2-.8 9.4-1 .6-.6 47.1.3 50.1.9z"/><path d="M342 341.5L174.6 508.9l8.1 8.2 8.1 8.1 167.7-167.7 167.7-167.7-7.8-7.9c-4.3-4.4-8.1-7.9-8.4-7.9-.3 0-75.9 75.4-168 167.5zm-159.7-91v69.4h10.9l10.8.1v-46.3l5.2-6.1c8.5-9.8 8.7-10.1 9.7-9 .5.5 10.4 13.3 22 28.4 11.7 15.1 22.1 28.7 23.2 30.2 2.1 2.7 2.2 2.7 15.5 2.7l13.4.1-21-27.2c-11.5-15-24.6-31.9-29-37.6-4.5-5.6-8.3-10.9-8.7-11.7-.4-1.3 5.1-8.2 15.7-19.5 1.8-1.9 14.7-16.4 17.2-19.2 3-3.4 15.2-17.1 16.8-18.8 4.8-5.1 5.2-4.9-8.7-4.9l-12.8.1-4.4 5.1c-2.4 2.9-6 7-8 9.2-2 2.2-6.5 7.4-10.1 11.5-3.5 4.1-6.7 7.7-7 8-.3.3-3.4 3.9-7 8-19.2 22.2-21.9 24.9-22 22.5-.1-1.1-.2-16-.3-33l-.2-31-10.6-.2-10.6-.1v69.3zm263.9 130.4c-.8.4-3.1 5.7-5.2 11.7-2.1 6-5.7 16.1-8 22.4-2.4 6.3-5.3 14.4-6.5 18-1.3 3.6-8.7 24-16.4 45.5-7.8 21.4-14.1 39.3-14.1 39.7 0 .5 4.9.8 10.9.8h10.9l3.7-10.8c2-5.9 4.8-14.3 6.3-18.7l2.8-8h52.8l6.3 18.4c3.4 10.1 6.4 18.5 6.6 18.8.2.2 5.4.2 11.5.1l11-.3-7-19.5c-3.8-10.7-7.3-20.4-7.8-21.5-.5-1.1-4.3-11.7-8.6-23.5-4.2-11.8-9.1-25.6-10.9-30.5-1.8-5-5.6-15.5-8.5-23.5-2.8-8-5.6-15.7-6.1-17.1-1-2.6-1.2-2.6-11.7-2.7-5.9-.1-11.3.2-12 .7zm15.7 36.3c2.4 7.3 5 14.6 5.6 16.3.7 1.6 3.3 9.2 5.8 16.7l4.6 13.7-3.2.3c-1.8.2-11.2.2-20.9 0l-17.7-.3 10.2-29.9c5.6-16.5 10.4-30 10.7-30 .3 0 2.5 6 4.9 13.2z"/></svg>