<?xml version="1.0" standalone="no"?>
<!DOCTYPE svg PUBLIC "-//W3C//DTD SVG 20010904//EN"
 "http://www.w3.org/TR/2001/REC-SVG-20010904/DTD/svg10.dtd">
<svg version="1.0" xmlns="http://www.w3.org/2000/svg"
 width="700.000000pt" height="700.000000pt" viewBox="0 0 700.000000 700.000000"
 preserveAspectRatio="xMidYMid meet">
<metadata>
Created by potrace 1.11, written by Peter Selinger 2001-2013
</metadata>
<g transform="translate(0.000000,700.000000) scale(0.100000,-0.100000)"
fill="#000000" stroke="none">
<path d="M3298 6996 c-1 -2 -41 -6 -88 -10 -100 -7 -225 -22 -295 -36 -27 -5
-63 -12 -80 -15 -68 -11 -95 -17 -190 -41 -663 -167 -1253 -520 -1724 -1030
-94 -103 -101 -111 -183 -216 -223 -285 -410 -626 -531 -963 -78 -218 -148
-503 -172 -701 -4 -33 -9 -68 -11 -79 -19 -100 -26 -566 -10 -715 11 -109 26
-225 40 -295 2 -11 6 -36 10 -55 64 -353 209 -746 394 -1070 500 -873 1348
-1491 2327 -1696 89 -18 186 -35 238 -40 34 -3 65 -8 68 -10 29 -17 536 -25
709 -11 153 13 369 47 475 74 33 8 67 16 75 18 178 36 560 181 767 290 406
216 710 457 1043 830 96 107 283 372 373 526 249 431 411 951 455 1454 14 164
5 628 -13 720 -2 11 -7 40 -10 65 -3 25 -7 56 -10 70 -3 14 -8 42 -11 63 -9
55 -58 269 -84 357 -55 193 -161 455 -258 640 -460 876 -1260 1514 -2212 1764
-182 48 -320 73 -560 102 -50 5 -526 14 -532 10z m502 -239 c14 -3 54 -8 89
-12 73 -7 310 -48 353 -61 10 -3 30 -7 44 -10 14 -3 92 -25 172 -50 715 -222
1329 -675 1741 -1284 197 -291 334 -578 430 -902 35 -120 46 -161 56 -208 2
-8 10 -49 19 -90 17 -83 22 -113 31 -180 3 -25 8 -52 10 -60 18 -72 26 -495
12 -670 -16 -205 -59 -437 -113 -620 -14 -47 -31 -105 -38 -130 -42 -146 -197
-488 -296 -650 -443 -729 -1114 -1246 -1915 -1475 -66 -19 -143 -39 -170 -45
-81 -16 -148 -30 -175 -35 -14 -3 -50 -8 -80 -11 -30 -3 -57 -7 -60 -9 -16
-10 -229 -20 -420 -20 -193 0 -334 7 -394 20 -12 2 -40 6 -63 9 -22 3 -52 7
-65 10 -12 3 -36 7 -53 10 -54 7 -189 36 -245 52 -390 113 -652 229 -949 421
-216 140 -349 249 -546 447 -129 130 -146 149 -245 276 -28 36 -58 73 -65 82
-30 37 -154 228 -198 304 -137 240 -252 517 -317 759 -35 129 -75 318 -85 394
-4 30 -8 63 -11 74 -26 136 -25 713 1 817 2 8 6 38 10 65 3 28 8 57 10 65 2 8
6 31 9 50 6 38 7 42 30 140 62 273 146 504 272 751 226 444 551 832 944 1128
52 39 100 74 105 78 20 16 172 112 230 146 230 135 588 279 850 343 52 12 272
54 311 59 27 3 58 8 69 10 11 2 61 7 110 11 50 3 92 8 94 10 6 6 471 -3 501
-9z"/>
<path d="M3420 3585 l-1674 -1674 81 -82 81 -81 1677 1677 1677 1677 -78 79
c-43 44 -81 79 -84 79 -3 0 -759 -754 -1680 -1675z"/>
<path d="M1823 4495 l0 -694 109 0 108 -1 0 232 0 231 52 61 c85 98 87 101 97
90 5 -5 104 -133 220 -284 117 -151 221 -287 232 -302 21 -27 22 -27 155 -27
l134 -1 -210 272 c-115 150 -246 319 -290 376 -45 56 -83 109 -87 117 -4 13
51 82 157 195 18 19 147 164 172 192 30 34 152 171 168 188 48 51 52 49 -87
49 l-128 -1 -44 -51 c-24 -29 -60 -70 -80 -92 -20 -22 -65 -74 -101 -115 -35
-41 -67 -77 -70 -80 -3 -3 -34 -39 -70 -80 -192 -222 -219 -249 -220 -225 -1
11 -2 160 -3 330 l-2 310 -106 2 -106 1 0 -693z"/>
<path d="M4462 3191 c-8 -4 -31 -57 -52 -117 -21 -60 -57 -161 -80 -224 -24
-63 -53 -144 -65 -180 -13 -36 -87 -240 -164 -455 -78 -214 -141 -393 -141
-397 0 -5 49 -8 109 -8 l109 0 37 108 c20 59 48 143 63 187 l28 80 264 0 264
0 63 -184 c34 -101 64 -185 66 -188 2 -2 54 -2 115 -1 l110 3 -70 195 c-38
107 -73 204 -78 215 -5 11 -43 117 -86 235 -42 118 -91 256 -109 305 -18 50
-56 155 -85 235 -28 80 -56 157 -61 171 -10 26 -12 26 -117 27 -59 1 -113 -2
-120 -7z m157 -363 c24 -73 50 -146 56 -163 7 -16 33 -92 58 -167 l46 -137
-32 -3 c-18 -2 -112 -2 -209 0 l-177 3 102 299 c56 165 104 300 107 300 3 0
25 -60 49 -132z"/>
</g>
</svg>
