<?xml version="1.0" standalone="no"?>
<!DOCTYPE svg PUBLIC "-//W3C//DTD SVG 20010904//EN"
 "http://www.w3.org/TR/2001/REC-SVG-20010904/DTD/svg10.dtd">
<svg version="1.0" xmlns="http://www.w3.org/2000/svg"
 width="1282.000000pt" height="1282.000000pt" viewBox="0 0 1282.000000 1282.000000"
 preserveAspectRatio="xMidYMid meet">
<metadata>
Created by potrace 1.11, written by Peter Selinger 2001-2013
</metadata>
<g transform="translate(0.000000,1282.000000) scale(0.100000,-0.100000)"
fill="#000000" stroke="none">
<path d="M6237 12814 c-1 -1 -65 -5 -142 -8 -77 -4 -162 -8 -190 -11 -27 -3
-75 -7 -105 -9 -62 -6 -140 -14 -185 -21 -16 -2 -52 -7 -80 -10 -27 -4 -63 -9
-80 -12 -16 -2 -42 -6 -57 -8 -37 -5 -140 -24 -223 -40 -38 -8 -82 -16 -98
-19 -15 -3 -35 -7 -45 -10 -9 -3 -28 -7 -42 -10 -127 -25 -461 -118 -635 -178
-327 -112 -714 -282 -1010 -443 -86 -47 -388 -226 -395 -234 -3 -3 -59 -42
-125 -86 -105 -69 -351 -248 -365 -264 -3 -3 -21 -18 -42 -33 -20 -15 -42 -33
-50 -41 -7 -7 -26 -23 -42 -35 -31 -24 -115 -96 -205 -177 -70 -61 -399 -391
-466 -465 -88 -98 -159 -183 -241 -285 -43 -55 -83 -104 -87 -110 -125 -153
-372 -528 -515 -783 -76 -136 -258 -513 -316 -657 -32 -77 -61 -149 -66 -160
-5 -11 -23 -60 -40 -110 -17 -49 -35 -100 -41 -113 -5 -12 -32 -98 -60 -190
-74 -246 -131 -478 -175 -717 -9 -49 -17 -97 -19 -105 -10 -53 -20 -126 -31
-210 -3 -25 -7 -56 -9 -70 -2 -14 -7 -56 -10 -95 -3 -38 -8 -81 -10 -95 -4
-23 -13 -155 -20 -290 -5 -89 -5 -487 0 -590 6 -124 14 -251 19 -298 3 -20 7
-64 11 -97 7 -72 33 -270 40 -305 2 -14 9 -54 15 -90 5 -36 12 -76 15 -90 3
-14 9 -47 15 -75 72 -374 192 -776 342 -1150 89 -220 207 -472 301 -640 28
-49 64 -115 80 -145 42 -76 165 -273 257 -410 67 -100 284 -394 314 -426 6 -6
27 -31 46 -55 19 -24 71 -84 114 -134 300 -341 636 -653 986 -916 377 -283
858 -565 1254 -736 44 -19 94 -40 110 -48 315 -142 970 -335 1356 -399 88 -15
232 -36 276 -41 27 -3 60 -8 74 -10 14 -2 54 -6 90 -10 36 -3 81 -8 100 -10
177 -21 824 -28 1020 -12 166 14 204 17 240 22 19 2 60 7 90 10 30 3 66 8 80
10 14 3 49 7 79 10 30 3 57 8 61 10 3 2 28 6 56 10 54 6 170 28 279 51 39 9
81 18 95 20 49 9 327 84 445 119 599 181 1216 476 1725 824 108 74 299 213
380 278 30 24 62 50 70 56 306 242 716 659 983 997 37 47 71 90 75 95 121 152
339 483 474 719 299 526 553 1180 673 1736 1 3 7 30 13 60 7 30 14 64 16 75 2
11 7 31 10 45 10 41 49 285 60 370 3 25 8 54 10 65 2 11 7 54 11 95 3 41 8 86
10 100 4 30 16 183 21 265 5 91 5 578 0 675 -5 91 -15 223 -21 280 -2 19 -7
64 -10 100 -4 36 -8 76 -10 90 -2 14 -7 45 -10 70 -3 25 -10 72 -15 105 -5 33
-12 78 -15 100 -4 22 -8 47 -10 55 -3 8 -7 33 -11 55 -8 54 -90 421 -104 465
-6 19 -13 43 -15 54 -17 75 -112 370 -172 531 -208 560 -506 1108 -859 1581
-107 144 -87 119 -229 289 -300 360 -650 698 -1015 977 -219 167 -533 376
-745 494 -38 21 -88 49 -110 61 -81 46 -383 193 -490 238 -367 158 -763 288
-1125 370 -8 2 -35 8 -60 14 -53 12 -91 19 -140 27 -19 3 -51 9 -70 14 -33 8
-145 26 -220 36 -19 2 -46 6 -60 9 -14 2 -52 7 -85 10 -33 4 -71 8 -85 10 -14
2 -56 7 -95 10 -38 4 -87 8 -107 11 -98 10 -672 26 -681 18z m388 -428 c116
-3 221 -8 235 -10 14 -2 63 -7 110 -11 47 -3 99 -8 115 -10 17 -2 53 -7 80
-10 71 -9 111 -15 180 -26 33 -6 76 -13 95 -15 28 -4 278 -54 340 -69 497
-116 1034 -321 1480 -564 1257 -685 2236 -1803 2738 -3126 84 -220 167 -481
207 -645 32 -127 55 -232 60 -260 3 -19 8 -42 10 -50 2 -8 6 -27 9 -43 3 -15
10 -53 15 -85 6 -31 13 -75 16 -97 4 -22 8 -47 10 -55 2 -8 7 -41 10 -73 4
-32 8 -66 10 -75 1 -9 6 -51 10 -92 4 -41 9 -82 10 -92 20 -103 27 -778 12
-983 -5 -60 -10 -127 -12 -148 -3 -39 -13 -132 -20 -177 -2 -14 -6 -47 -10
-75 -15 -123 -61 -381 -91 -507 -2 -10 -6 -26 -8 -35 -76 -327 -217 -753 -341
-1028 -14 -33 -34 -76 -42 -95 -28 -62 -151 -309 -189 -378 -212 -385 -465
-747 -739 -1062 -97 -111 -135 -151 -290 -305 -247 -248 -474 -442 -738 -631
-56 -40 -106 -77 -112 -81 -24 -21 -291 -187 -400 -250 -145 -83 -359 -193
-515 -263 -118 -53 -433 -180 -461 -185 -8 -2 -31 -10 -50 -18 -20 -8 -98 -33
-175 -56 -76 -24 -161 -49 -189 -58 -27 -8 -61 -17 -73 -19 -13 -3 -49 -11
-80 -20 -68 -18 -428 -90 -492 -99 -25 -3 -52 -8 -60 -10 -8 -2 -44 -7 -80
-10 -36 -4 -73 -9 -83 -11 -10 -1 -50 -6 -90 -10 -39 -3 -85 -8 -102 -9 -179
-20 -697 -26 -895 -12 -221 17 -381 33 -500 52 -14 2 -56 9 -95 15 -38 6 -83
13 -100 16 -49 8 -227 45 -270 56 -22 5 -47 11 -55 13 -150 29 -590 168 -805
254 -234 94 -541 239 -720 340 -217 124 -444 271 -645 419 -101 75 -254 196
-286 226 -7 6 -38 34 -70 61 -128 110 -374 349 -495 480 -500 548 -893 1179
-1164 1875 -45 114 -137 378 -150 430 -2 8 -24 89 -49 179 -25 90 -47 176 -50
190 -2 14 -9 49 -16 76 -14 61 -13 55 -38 190 -12 61 -24 130 -27 155 -3 25
-8 52 -10 60 -2 8 -6 40 -10 71 -3 31 -7 65 -9 75 -2 11 -7 53 -11 94 -3 41
-8 86 -10 100 -26 182 -26 827 0 1083 22 216 29 274 45 367 5 30 12 73 14 95
3 22 12 74 21 115 9 41 18 90 21 109 3 19 21 97 41 175 19 78 36 146 37 151 4
19 38 131 73 245 169 546 469 1155 795 1617 60 85 237 323 248 333 3 3 29 34
59 70 211 256 582 623 836 827 170 136 246 192 410 304 94 64 224 148 286 184
308 180 583 315 854 421 50 20 101 40 115 46 243 99 802 251 1075 292 22 4 65
11 95 16 70 11 110 17 185 26 33 3 68 8 78 10 10 2 62 6 115 9 53 4 103 8 110
11 7 2 104 7 215 10 111 4 204 8 205 10 2 1 9 1 15 -1 7 -2 107 -6 222 -9z"/>
<path d="M6263 6562 c-1696 -1696 -3083 -3087 -3083 -3091 0 -3 65 -71 145
-151 l145 -145 3089 3089 3088 3088 -132 131 c-73 73 -141 139 -151 147 -18
15 -187 -152 -3101 -3068z"/>
<path d="M3343 8229 l0 -1269 198 0 199 0 0 421 c0 478 -12 413 98 538 33 36
79 89 103 118 24 28 49 51 55 50 14 -2 28 -20 508 -646 l370 -481 243 0 c134
0 243 3 243 6 0 5 -127 172 -140 184 -3 3 -48 61 -100 130 -52 69 -100 132
-107 140 -6 8 -71 92 -143 185 -71 94 -139 181 -150 195 -11 14 -60 77 -107
140 -48 63 -90 117 -93 120 -3 3 -59 74 -124 158 -130 170 -125 151 -66 213 8
9 47 51 85 95 146 163 169 189 174 194 3 3 40 43 81 90 41 47 89 101 107 120
17 19 41 46 52 59 30 35 154 173 171 191 8 9 67 74 130 145 63 72 121 136 127
143 7 7 13 17 13 21 0 5 -104 8 -230 8 l-231 0 -25 -31 c-15 -17 -52 -60 -84
-96 -32 -36 -126 -144 -210 -240 -84 -96 -156 -177 -159 -180 -3 -3 -49 -54
-101 -115 -52 -60 -105 -121 -118 -135 -12 -14 -98 -111 -190 -217 -92 -106
-170 -192 -174 -192 -5 -1 -8 271 -8 603 l0 603 -199 0 -198 0 0 -1268z"/>
<path d="M8155 5841 c-10 -25 -211 -581 -265 -731 -26 -74 -64 -180 -85 -235
-20 -55 -79 -219 -132 -365 -52 -146 -111 -308 -130 -360 -18 -52 -52 -147
-74 -210 -22 -63 -45 -124 -49 -135 -18 -40 -161 -441 -166 -462 l-4 -23 205
0 c113 0 205 2 205 4 0 5 198 593 216 641 l15 40 479 0 c263 0 480 -2 483 -5
2 -3 55 -157 118 -342 l114 -338 207 0 c115 0 208 3 208 6 0 4 -43 126 -96
273 -53 146 -152 421 -220 611 -69 190 -142 392 -163 450 -45 121 -196 542
-301 835 -39 110 -77 216 -85 235 -7 19 -21 56 -31 81 l-18 46 -213 0 c-184 0
-213 -2 -218 -16z m252 -503 c17 -51 100 -293 183 -538 84 -245 154 -452 157
-461 4 -15 -30 -16 -369 -16 -205 0 -376 1 -380 3 -3 2 43 149 104 326 60 178
144 425 186 550 42 126 79 228 82 228 3 0 20 -42 37 -92z"/>
</g>
</svg>
